<!-- Generator: Adobe Illustrator 19.2.1, SVG Export Plug-In  -->
<svg version="1.1"
	 xmlns="http://www.w3.org/2000/svg" xmlns:xlink="http://www.w3.org/1999/xlink" xmlns:a="http://ns.adobe.com/AdobeSVGViewerExtensions/3.0/"
	 x="0px" y="0px" viewBox="0 0 218.517 218.517"
	 style="enable-background:new 0 0 218.517 218.517;" xml:space="preserve">
<style type="text/css">
	.st0{fill:none;}
	.st1{fill:#5D5D5D;}
	.st2{fill:#807474;}
	.st3{fill:#FFF7C2;}
	.st4{fill:#B1A496;}
	.st5{fill:#D12825;}
	.st6{fill:none;stroke:#000000;stroke-width:0.2782;stroke-miterlimit:10;}
	.st7{fill:none;stroke:#000000;stroke-width:0.2618;stroke-miterlimit:10;}
	.st8{fill:none;stroke:#000000;stroke-width:0.241;stroke-miterlimit:10;}
	.st9{fill:none;stroke:#000000;stroke-width:0.2189;stroke-miterlimit:10;}
	.st10{fill:none;stroke:#000000;stroke-width:0.1951;stroke-miterlimit:10;}
	.st11{fill:none;stroke:#000000;stroke-width:0.1718;stroke-miterlimit:10;}
	.st12{fill:none;stroke:#000000;stroke-width:0.1483;stroke-miterlimit:10;}
	.st13{fill:none;stroke:#000000;stroke-width:0.1205;stroke-miterlimit:10;}
	.st14{fill:none;stroke:#000000;stroke-width:0.0959;stroke-miterlimit:10;}
	.st15{fill:none;stroke:#000000;stroke-width:0.0722;stroke-miterlimit:10;}
	.st16{fill:none;stroke:#000000;stroke-width:0.0531;stroke-miterlimit:10;}
	.st17{fill:none;stroke:#000000;stroke-width:0.0359;stroke-miterlimit:10;}
</style>
<defs>
</defs>
<g>
	<line class="st0" x1="51.763" y1="132.382" x2="51.749" y2="132.387"/>
	<path class="st1" d="M149.508,39.312c2.205,3.16,3.252,7.25,2.319,11.902c-1.506,7.561,2.645,14.565,9.021,17.404
		c2.576,1.147,5.52,1.615,8.598,1.168c3.265-0.473,6.2-0.009,8.712,1.109c1.105,0.492,2.132,1.113,3.055,1.842
		C174.317,59.093,163.503,47.339,149.508,39.312z M180.399,98.318c-2.586,1.727-4.461,4.045-5.608,6.621
		c-2.839,6.377-1.237,14.358,4.941,18.97c3.807,2.833,5.765,6.573,6.241,10.397c5.03-15.329,5.201-31.301,1.196-46.055
		C186.497,92.046,184.341,95.684,180.399,98.318z M167.302,151.827c-7.561-1.506-14.565,2.645-17.404,9.021
		c-1.147,2.576-1.615,5.52-1.168,8.598c0.473,3.265,0.009,6.2-1.109,8.712c-0.492,1.105-1.113,2.131-1.842,3.055
		c13.645-6.896,25.399-17.71,33.426-31.706C176.044,151.713,171.955,152.76,167.302,151.827z M113.577,174.791
		c-6.377-2.839-14.358-1.237-18.97,4.941c-2.833,3.807-6.573,5.765-10.397,6.241c15.329,5.03,31.301,5.201,46.055,1.196
		c-3.795-0.672-7.433-2.828-10.067-6.77C118.472,177.813,116.154,175.938,113.577,174.791z"/>
	<path class="st1" d="M134.307,32.544c-3.824,0.476-7.564,2.434-10.397,6.241c-4.612,6.178-12.593,7.781-18.97,4.941
		c-2.576-1.147-4.894-3.022-6.621-5.608c-2.634-3.942-6.272-6.098-10.067-6.77c6.678-1.821,13.615-2.772,20.628-2.813
		c1.039,0.003,2.082,0.019,3.118,0.053C119.452,28.831,126.951,30.134,134.307,32.544z"/>
	<path class="st1" d="M72.738,37.303c-0.084,0.116-0.174,0.218-0.249,0.338c-0.621,0.829-1.158,1.74-1.593,2.717
		c-1.119,2.512-1.582,5.447-1.109,8.712c1.55,10.706-7.953,19.731-18.572,17.619c-4.653-0.933-8.742,0.114-11.902,2.319
		c1.898-3.304,4.001-6.429,6.286-9.374c0.635-0.812,1.279-1.62,1.947-2.406c6.932-8.243,15.36-14.879,24.685-19.67
		C72.401,37.471,72.567,37.392,72.738,37.303z"/>
	<path class="st1" d="M32.544,84.21c0.476,3.824,2.434,7.564,6.241,10.397c6.178,4.612,7.781,12.593,4.942,18.97
		c-1.147,2.576-3.022,4.894-5.608,6.621c-3.803,2.543-5.94,6.014-6.685,9.656c-0.039,0.136-0.055,0.271-0.085,0.411
		c-0.049-0.186-0.101-0.363-0.15-0.548c-2.761-10.468-3.427-21.536-1.744-32.543c0.151-1.027,0.329-2.043,0.521-3.063
		C30.619,90.797,31.469,87.486,32.544,84.21z"/>
	<path d="M134.307,32.544c-3.824,0.476-7.564,2.434-10.397,6.241c-4.612,6.178-12.593,7.781-18.97,4.941
		c-2.576-1.147-4.894-3.022-6.621-5.608c-2.634-3.942-6.272-6.098-10.067-6.77c-4.552,1.225-8.987,2.851-13.239,4.855
		c-0.768,0.348-1.526,0.722-2.274,1.1c-0.084,0.116-0.174,0.218-0.249,0.338c-0.621,0.829-1.158,1.74-1.593,2.717
		c-1.119,2.512-1.582,5.447-1.109,8.712c1.55,10.706-7.953,19.731-18.572,17.619c-4.653-0.933-8.742,0.114-11.902,2.319
		c-1.375,2.376-2.634,4.859-3.777,7.426s-2.146,5.164-2.991,7.776c0.476,3.824,2.434,7.564,6.241,10.397
		c6.178,4.612,7.781,12.593,4.942,18.97c-1.147,2.576-3.022,4.894-5.608,6.621c-3.803,2.543-5.94,6.014-6.685,9.656
		c-0.039,0.136-0.055,0.271-0.085,0.411c0.22,0.809,0.449,1.623,0.704,2.426c1.357,4.501,3.115,8.885,5.251,13.087
		c0.924,0.729,1.95,1.35,3.055,1.842c2.512,1.119,5.447,1.582,8.712,1.109c3.078-0.447,6.022,0.021,8.598,1.168
		c6.377,2.839,10.527,9.843,9.021,17.404c-0.933,4.653,0.114,8.742,2.319,11.902c2.376,1.375,4.859,2.634,7.426,3.777
		s5.164,2.146,7.776,2.991c3.824-0.476,7.564-2.434,10.397-6.241c4.612-6.178,12.593-7.781,18.97-4.941
		c2.576,1.147,4.894,3.022,6.621,5.608c2.634,3.942,6.272,6.098,10.067,6.77c5.361-1.444,10.563-3.441,15.513-5.955
		c0.729-0.924,1.35-1.95,1.842-3.055c1.119-2.512,1.582-5.447,1.109-8.712c-0.447-3.078,0.021-6.022,1.168-8.598
		c2.839-6.377,9.843-10.527,17.404-9.021c4.653,0.933,8.742-0.114,11.902-2.319c1.375-2.376,2.634-4.859,3.777-7.426
		s2.146-5.164,2.991-7.776c-0.476-3.824-2.434-7.564-6.241-10.397c-6.178-4.612-7.78-12.593-4.941-18.97
		c1.147-2.576,3.022-4.894,5.608-6.621c3.942-2.634,6.098-6.272,6.77-10.067c-1.444-5.361-3.441-10.563-5.955-15.513
		c-0.924-0.729-1.95-1.35-3.055-1.842c-2.512-1.119-5.447-1.582-8.712-1.109c-3.078,0.447-6.022-0.021-8.598-1.168
		c-6.377-2.839-10.527-9.843-9.021-17.404c0.933-4.653-0.114-8.742-2.319-11.902c-2.376-1.375-4.859-2.634-7.426-3.777
		S136.918,33.39,134.307,32.544z M140.171,55.537c7.457,4.272,13.736,9.936,18.65,16.502c2.175,2.884,4.077,5.964,5.702,9.172
		c0.815,1.611,1.561,3.256,2.231,4.923l-57.496,23.123l-24.31,57.011c-0.296-0.121-0.598-0.255-0.899-0.389
		c-1.973-0.879-3.874-1.845-5.703-2.9c-7.457-4.272-13.736-9.936-18.65-16.503c-2.175-2.884-4.077-5.964-5.702-9.172
		c-0.815-1.611-1.56-3.256-2.231-4.923l57.496-23.123l24.31-57.011c0.296,0.121,0.598,0.255,0.899,0.389
		C136.441,53.515,138.342,54.482,140.171,55.537z"/>
	<path class="st2" d="M134.468,52.637c1.973,0.879,3.874,1.845,5.703,2.9c7.457,4.272,13.736,9.936,18.65,16.502l-49.563,37.219
		l24.31-57.011C133.865,52.368,134.167,52.503,134.468,52.637z"/>
	<path class="st3" d="M158.822,72.04c2.175,2.884,4.077,5.964,5.702,9.172c0.815,1.611,1.561,3.256,2.231,4.923l-57.496,23.123
		L158.822,72.04z"/>
	<path class="st3" d="M109.258,109.258l-49.563,37.219c-2.175-2.884-4.077-5.964-5.702-9.172c-0.815-1.611-1.56-3.256-2.231-4.923
		L109.258,109.258z"/>
	<path class="st2" d="M109.258,109.258l-24.31,57.011c-0.296-0.121-0.598-0.255-0.899-0.389c-1.973-0.879-3.874-1.845-5.703-2.9
		c-7.457-4.272-13.736-9.936-18.65-16.503L109.258,109.258z"/>
	<path class="st4" d="M166.754,86.135c0.921,2.282,1.702,4.611,2.341,6.986c3.077,11.331,2.946,23.599-0.918,35.375
		c-0.653,2.008-1.419,3.999-2.298,5.972s-1.845,3.874-2.901,5.703c-6.166,10.752-15.195,19.057-25.675,24.353
		c-3.804,1.93-7.791,3.46-11.909,4.571c-7.992,2.167-16.449,2.747-24.862,1.53c-3.523-0.496-7.038-1.305-10.513-2.448
		c-1.703-0.55-3.388-1.191-5.072-1.908l24.31-57.011L166.754,86.135z"/>
	<path class="st4" d="M133.569,52.247l-24.31,57.011l-57.496,23.123c-0.921-2.282-1.702-4.611-2.341-6.986
		c-3.077-11.331-2.946-23.599,0.918-35.375c0.653-2.008,1.419-3.999,2.298-5.972c0.879-1.973,1.845-3.874,2.901-5.703
		c6.166-10.751,15.195-19.057,25.675-24.353c3.804-1.93,7.791-3.46,11.909-4.571c7.992-2.167,16.449-2.747,24.862-1.53
		c3.523,0.496,7.038,1.305,10.513,2.448C130.2,50.89,131.885,51.531,133.569,52.247z"/>
	
		<ellipse transform="matrix(0.4067 -0.9135 0.9135 0.4067 -46.9796 88.9546)" class="st5" cx="44.999" cy="80.648" rx="6.04" ry="6.04"/>
	<line class="st0" x1="166.768" y1="86.13" x2="166.754" y2="86.135"/>
	
		<ellipse transform="matrix(0.4067 -0.9135 0.9135 0.4067 -34.9935 164.6316)" class="st6" cx="109.258" cy="109.258" rx="58.141" ry="58.141"/>
	
		<ellipse transform="matrix(0.4067 -0.9135 0.9135 0.4067 -34.9935 164.6316)" class="st7" cx="109.258" cy="109.258" rx="54.713" ry="54.713"/>
	
		<ellipse transform="matrix(0.4067 -0.9135 0.9135 0.4067 -34.9935 164.6316)" class="st8" cx="109.258" cy="109.258" rx="50.379" ry="50.379"/>
	
		<ellipse transform="matrix(0.4067 -0.9135 0.9135 0.4067 -34.9935 164.6316)" class="st9" cx="109.258" cy="109.258" rx="45.759" ry="45.759"/>
	
		<ellipse transform="matrix(0.4067 -0.9135 0.9135 0.4067 -34.9935 164.6316)" class="st10" cx="109.258" cy="109.258" rx="40.776" ry="40.776"/>
	
		<ellipse transform="matrix(0.4067 -0.9135 0.9135 0.4067 -34.9935 164.6316)" class="st11" cx="109.258" cy="109.258" rx="35.906" ry="35.906"/>
	
		<ellipse transform="matrix(0.4067 -0.9135 0.9135 0.4067 -34.9935 164.6316)" class="st12" cx="109.258" cy="109.258" rx="30.99" ry="30.99"/>
	
		<ellipse transform="matrix(0.4067 -0.9135 0.9135 0.4067 -34.9935 164.6316)" class="st13" cx="109.258" cy="109.258" rx="25.179" ry="25.179"/>
	
		<ellipse transform="matrix(0.4067 -0.9135 0.9135 0.4067 -34.9935 164.6316)" class="st14" cx="109.258" cy="109.258" rx="20.036" ry="20.036"/>
	
		<ellipse transform="matrix(0.4067 -0.9135 0.9135 0.4067 -34.9935 164.6316)" class="st15" cx="109.258" cy="109.258" rx="15.09" ry="15.09"/>
	
		<ellipse transform="matrix(0.4067 -0.9135 0.9135 0.4067 -34.9935 164.6316)" class="st16" cx="109.258" cy="109.258" rx="11.109" ry="11.109"/>
	
		<ellipse transform="matrix(0.4067 -0.9135 0.9135 0.4067 -34.9935 164.6316)" class="st17" cx="109.258" cy="109.258" rx="7.498" ry="7.498"/>
	
		<ellipse transform="matrix(0.4067 -0.9135 0.9135 0.4067 -34.9935 164.6316)" class="st0" cx="109.258" cy="109.258" rx="109.231" ry="109.231"/>
	<path class="st1" d="M57.668,149.898c6.377,2.839,10.527,9.843,9.021,17.404c-0.933,4.653,0.114,8.742,2.319,11.902
		c-6.749-3.87-12.763-8.605-17.952-14.013c-0.718-0.747-1.429-1.512-2.122-2.291c-4.63-5.214-8.532-10.979-11.632-17.121
		c0.924,0.729,1.95,1.35,3.055,1.842c2.512,1.119,5.447,1.582,8.712,1.109C52.148,148.283,55.092,148.751,57.668,149.898z"/>
</g>
</svg>