<?xml version="1.0" encoding="utf-8"?>
<!-- Generator: Adobe Illustrator 16.0.0, SVG Export Plug-In . SVG Version: 6.00 Build 0)  -->
<!DOCTYPE svg PUBLIC "-//W3C//DTD SVG 1.1//EN" "http://www.w3.org/Graphics/SVG/1.1/DTD/svg11.dtd">
<svg version="1.1" xmlns="http://www.w3.org/2000/svg" xmlns:xlink="http://www.w3.org/1999/xlink" x="0px" y="0px"
	 width="623.622px" height="141.732px" viewBox="0 0 623.622 141.732" enable-background="new 0 0 623.622 141.732"
	 xml:space="preserve">
<g id="Text">
	<g id="A">
	</g>
</g>
<g id="Leaf">
	<g>
		<path d="M529.396,49.758c2.777-0.018,4.848-2.342,4.834-4.807c-0.017-2.878-2.111-4.919-4.781-4.903
			c-2.779,0.019-5.063,2.087-5.047,4.965C524.417,47.478,526.725,49.774,529.396,49.758z"/>
		<path d="M533.803,93.313l-0.193-33.802c-4.154,1.926-8.58,3.135-13.756,4.093l0.016,2.517c6.465,0.782,6.682,1.191,6.715,7.098
			l0.115,20.138c0.027,5.157-0.483,6.627-4.011,7.269l-0.011-2.107l-3.475-0.391c-3.634-0.232-4.438-0.639-4.465-5.57l-0.328-57.995
			c-3.465,1.152-10.131,2.837-15.256,3.64l0.016,2.57c7.639,0.312,8.016,0.616,8.05,7.089l0.077,13.459
			c-2.197-1.065-5.561-1.301-7.166-1.291c-13.348,0.085-25.787,10.849-25.711,24.41c0.033,5.433,1.73,9.806,4.252,13.118
			l-1.846-0.055c-3.951-0.18-4.863-0.738-4.895-5.722l-0.184-32.619c-1.279,0.419-3.518,0.792-6.294,1.221
			c-2.774,0.274-6.458,0.606-9.13,0.726l0.018,2.568l3.739,0.541c3.474,0.441,4.489,0.898,4.523,6.342l0.124,22.244
			c-3.771,3.465-7.607,5.08-11.506,5.104c-4.754,0.031-9.412-2.2-9.465-11.291l-0.072-12.842
			c-0.039-6.422-0.064-11.199,0.236-14.437c-1.279,0.418-4.055,0.795-6.774,1.275c-2.667,0.221-4.911,0.544-7.101,0.66l0.017,2.569
			l3.152,0.544c2.407,0.447,3.264,0.906,3.296,6.349l0.104,18.494c0.027,4.693,1.164,8.043,2.94,10.357
			c-2.722-0.775-4.056-2.403-5.958-7.431c-5.023-14.022-12.672-35.388-18.701-53.055l-2.672,0.001
			c-4.416,13.1-10.168,28.438-14.23,39.096l-7.275,3.013c0.332-2.052,0.775-4.84,1.26-8.074c0.707-4.711-1.111-12.3-4.752-19.809
			l-1.721-3.558l-4.734,8.098c-0.803-1.311-1.904-2.732-3.379-3.914c-1.84-1.471-3.262-4.431-3.667-5.486
			c-3.825-9.404-0.856-27.254-0.826-27.434l1.149-6.774l-7.032,7.342c-0.567,0.595-13.892,14.663-19.378,24.144
			c-2.057,3.551-2.342,6.804-1.698,9.582l-5.608-3.372l0.195,3.95c0.086,1.675,0.959,16.5,5.971,21.21
			c0.849,0.798,1.596,1.524,2.255,2.185l-6.62-1.586l0.146,2.817c0.012,0.229,1.328,21.04,20.389,24.691
			c-3.939,3.987-7.939,7.395-8.847,7.954c0.024-0.015,0.245-0.146,0.591-0.209l0.068,0.381h-0.652v11.475l3.768-4.766
			c0,0,3.137-3.972,6.252-7.961c1.561-1.996,3.119-4,4.271-5.512c0.223-0.29,0.421-0.551,0.615-0.809
			c6.266-0.006,10.873-1.271,13.934-2.546l20.619-0.012v-2.981c-7.448-0.918-8.069-1.483-6.354-6.93
			c2.521-8.787,9.959-29.184,14.678-41.67h0.094c2.972,8.147,5.925,16.397,8.479,23.619h-8.466l2.703,4.787h7.449
			c2.297,6.534,4.115,11.83,5.092,14.787c1.434,4.058,1.148,4.674-5.295,5.396v2.979l21.436-0.015v-0.636
			c1.895,0.978,4.033,1.4,6.201,1.388c2.668-0.02,4.588-0.697,7.52-2.308c3.087-1.664,5.426-3.372,7.927-5.288l0.038,6.932
			l0.697,0.561c1.602-0.575,4.158-1.26,6.719-1.94c2.666-0.79,5.439-1.269,7.521-1.589l-0.006-1.484
			c3.746,4.151,8.855,6.273,13.244,6.249c1.121-0.009,4.162-0.694,8.314-2.982l6.23-3.478l0.033,6.367
			c3.834-1.41,8.559-2.455,11.832-3.09l0.01,1.885l21.844-0.138l-0.013-2.772C534.536,100.447,533.838,99.784,533.803,93.313z
			 M371.188,93.483c-0.303,2.004-2.373,4.948-4.99,7.951c-14.254-1.203-18.23-12.73-19.313-18.243l12.586,3.009l-2.924-4.447
			c-0.17-0.261-1.83-2.701-7.158-7.711c-2.25-2.115-3.668-8.798-4.305-14.307l7.064,4.247l2.246-3.57
			c-0.766-0.509-7.371-5.188-3.105-12.553c2.777-4.798,7.852-11.029,12.025-15.849c-0.094,0.178-0.188,0.356-0.283,0.534
			c-0.281,0.513-0.562,1.005-0.836,1.489c-2.21,3.902-4.302,7.587-3.631,16.181c0.438,5.595,2.447,10.001,4.795,13.839
			c-2.975-1.387-5.938-2.64-7.189-2.777l-0.463,4.193c1.219,0.169,7.268,2.99,12.387,5.604c0.147,0.215,0.303,0.434,0.449,0.651
			c2.424,3.616,3.273,9.829,3.148,15.65c-3.109-2.496-7.851-5.813-11.073-5.813v4.219c1.927,0,6.937,3.452,10.69,6.792
			C371.27,92.878,371.23,93.187,371.188,93.483z M384.566,97.421c-0.047,0.039-4.283,3.396-13.033,4.028
			c2.035-2.722,3.521-5.321,3.827-7.342c0.04-0.286,0.079-0.585,0.117-0.879c1.679-1.201,2.725-2.2,3.516-2.956
			c1.406-1.344,1.829-1.749,4.524-1.973l-0.346-4.205c-3.988,0.33-5.234,1.353-7.096,3.129c-0.049,0.046-0.106,0.102-0.154,0.148
			c0.127-5.729-0.626-11.988-3.016-16.532c1.313-1.14,3.093-2.405,4.827-2.869l-1.089-4.076c-2.316,0.619-4.469,2.069-6.051,3.38
			c-0.148-0.213-0.287-0.421-0.439-0.635c-3.361-4.782-6.84-9.729-7.385-16.753c-0.569-7.309,1.049-10.162,3.099-13.773
			c0.286-0.505,0.577-1.018,0.868-1.552c0.291-0.536,0.572-1.073,0.842-1.604c-0.145,5.704,0.258,12.224,2.223,17.057
			c0.074,0.192,1.834,4.735,4.955,7.23c2.725,2.182,3.752,5.712,3.76,5.741l1.333,4.818l5.22-8.931
			c2.387,5.992,3.135,11.005,2.738,13.636c-1.031,6.884-1.861,11.696-1.87,11.745l-0.649,3.771l8.764-3.628
			C393.062,87.788,390.611,93.035,384.566,97.421z M496.99,98.938c-6.838,0.041-14.188-5.818-14.252-17.223
			c-0.078-13.768,8.604-17.726,13.677-17.759c3.739-0.022,8.128,1.388,10.927,4.813l0.147,26.609
			C504.935,96.987,500.887,98.912,496.99,98.938z"/>
		<path d="M558.998,59.669h-0.109c-8.918,0.056-21.854,7.279-21.76,23.613c0.061,10.84,8.453,21.472,22.122,21.385
			c9.722-0.06,21.803-7.379,21.714-23.406C580.895,69.086,571.227,59.592,558.998,59.669z M560.459,101.22
			c-8.861,0.054-14.627-8.848-14.699-21.074c-0.061-11.044,5.728-16.989,12.189-17.028c9.24-0.059,14.314,9.362,14.374,20.202
			C572.396,96.316,567.085,101.175,560.459,101.22z"/>
		<path d="M337.551,92.742l-0.107-18.803c-0.052-9.349-5.155-14.658-13.06-14.608c-3.099,0.02-5.976,1.374-8.743,2.982
			c-2.555,1.764-4.734,3.113-6.703,4.563l-0.045-7.757c-3.941,2.027-8.474,3.238-13.328,4.09l0.014,2.439
			c-2.778-3.625-7.162-6.092-12.141-6.061l-0.107,0c-5.021,0.032-10.454,2.737-14.486,7.13c-4.142,4.443-6.509,10.572-6.471,17.251
			c0.027,4.939,1.527,9.596,4.252,13.236c-0.958,0.467-2.436,1.135-3.604,1.143c-1.923,0.01-3.587-1.52-3.611-5.885l-0.104-18.442
			c-0.028-4.932-1.174-8.829-4.554-11.581c-2.092-1.784-5.25-2.639-8.134-2.621c-5.922,1.167-12.361,5.01-14.861,6.875
			c-1.861,1.346-3.35,2.487-3.342,3.926c0.013,2.259,2.64,4.093,4.188,4.081c1.496-0.009,2.615-0.683,2.873-2.124
			c0.996-2.984,1.787-4.889,3.062-6.337c0.955-1.135,2.659-2.02,4.849-2.033c5.127-0.032,8.943,3.951,8.984,11.144l0.007,1.385
			c-2.181,1.555-9.59,4.377-15.72,6.418c-5.757,1.732-8.408,5.191-8.383,9.765c0.011,1.929,0.483,3.78,1.314,5.426
			c-1.358,0.56-3.175,1.107-5.056,1.118c-2.616,0.016-5.991-1.502-6.035-9.31l-0.141-25.018l11.215-0.069
			c1.279-0.882,1.586-3.042,0.565-4.012l-11.804,0.075l-0.073-13.047l-1.499-0.196l-5.517,6.405l0.038,6.883l-4.859,0.031
			l-2.761,2.894l0.434,1.128l7.21-0.045l0.111,19.839c-2.1-10.914-12.537-13.426-20.096-15.523
			c-7.973-2.411-13.434-4.916-14.751-12.142c-0.876-4.799,1.143-11.07,8.892-12.483c8.513-1.553,11.819,4.737,14.478,10.362
			l3.067-1.081c-1.906-6.127-3.13-9.665-4.053-12.994c-4.709-0.707-8.674-0.769-12.445-0.08
			c-12.184,2.222-18.055,11.333-16.396,20.43c2.008,11.015,12.942,13.775,19.195,15.716c7.888,2.528,13.89,4.828,15.245,12.256
			c1.262,6.926-2.183,12.304-9.727,13.681c-9.838,1.794-15.469-6.841-18.108-12.363l-2.949,1.165
			c1.575,4.883,4.129,12.25,5.341,14.273c0.931,0.194,2.516,0.793,4.828,1.05c2.363,0.247,5.75,0.624,9.829-0.12
			c9.827-1.793,16.291-7.959,17.69-15.551l0.01,1.973c0.044,7.551,3.483,11.434,9.626,11.393c1.069-0.004,2.776-0.377,4.64-1.365
			l5.434-2.897c2.149,2.528,5.342,4.166,9.085,4.143c3.526-0.022,8.206-3.545,12.409-6.241c0.438,1.59,1.033,3.021,2.537,4.453
			c0.913,0.865,3.054,1.677,4.389,1.668l8.197-4.83l-1.105-2.641c3.368,4.459,8.586,7.371,15.251,7.328
			c3.152-0.018,9.927-1.653,16.401-9.039l-1.778-2.402c-3.772,3.26-7.449,5.027-11.667,5.054
			c-6.943,0.044-15.145-5.449-15.272-18.704c12.387-0.438,25.359-1.496,26.961-1.71c1.758-0.475,2.13-1.143,2.117-3.353
			c-0.019-3.164-1.156-6.203-3.045-8.705c5.493,0.781,6.189,1.21,6.224,7.452l0.113,19.827c0.035,6.317-0.603,6.889-7.434,7.598
			l0.015,2.773l21.522-0.134l-0.016-2.774c-6.467-0.629-6.946-0.832-6.985-7.559l-0.126-22.449
			c3.187-2.844,7.392-5.491,11.771-5.519c7.263-0.046,9.637,4.563,9.68,11.395l0.09,16.028c0.036,6.572-0.761,7.35-7.006,8.057
			l0.017,2.774l20.83-0.132l-0.017-2.774C338.177,99.673,337.59,99.419,337.551,92.742z M243.584,99.138
			c-3.365,0.021-7.545-2.42-7.573-7.298c-0.018-3.647,2.213-5.562,6.371-7.283c2.291-0.99,7.726-3.284,10.016-4.378l0.086,15
			C250.518,96.885,246.362,99.12,243.584,99.138z M288.012,75.021c-6.248,0.196-12.122,0.336-18.053,0.271
			c1.828-7.719,6.398-11.857,11.15-11.888h0.105c5.609-0.036,9.32,4.359,9.349,9.495C290.569,74.339,289.988,74.906,288.012,75.021z
			"/>
		<path d="M88.909,61.936l-18.319,0.115l0.016,2.774c5.664,0.528,6.47,1.654,4.683,6.547c-2.155,6.229-5.363,14.931-9.105,23.533
			c-2.98-7.328-7.311-17.679-9.914-24.441c-1.946-4.304-1.738-5.075,4.028-5.574l-0.016-2.774l-20.134,0.127l0.017,2.774
			c5.449,0.53,6.255,1.295,8.638,6.983c5.032,11.423,9.687,22.284,14.077,33.814l2.885-0.018
			c5.685-14.572,10.691-26.419,14.121-33.786c2.745-5.823,3.487-6.804,9.039-7.301L88.909,61.936z"/>
		<path d="M161.896,93.841l-0.107-18.803c-0.054-9.349-5.158-14.659-13.062-14.609c-3.098,0.019-5.974,1.374-8.743,2.982
			c-2.553,1.764-4.735,3.113-6.703,4.563l-0.044-7.756c-3.942,2.027-8.474,3.239-13.329,4.09l0.015,2.517
			c5.558,0.789,6.256,1.195,6.29,7.463l0.113,19.826c0.031,5.396-0.444,6.597-4.831,7.275l0.973-0.573l-1.136-2.713
			c-0.959,0.469-2.451,1.144-3.625,1.151c-1.923,0.012-3.586-1.518-3.612-5.883l-0.104-18.442c-0.028-4.933-1.172-8.83-4.553-11.583
			c-2.093-1.785-5.249-2.638-8.133-2.62c-5.922,1.167-12.362,5.01-14.862,6.874c-1.862,1.348-3.35,2.486-3.342,3.925
			c0.012,2.261,2.639,4.095,4.188,4.083c1.496-0.009,2.613-0.683,2.873-2.124c0.998-2.984,1.789-4.891,3.062-6.338
			c0.955-1.136,2.658-2.019,4.848-2.033c5.127-0.032,8.942,3.95,8.983,11.143l0.008,1.386c-2.181,1.554-9.59,4.377-15.72,6.417
			c-5.758,1.733-8.409,5.191-8.382,9.764c0.037,6.42,5.087,11.988,11.977,11.944c3.524-0.022,8.205-3.545,12.409-6.241
			c0.438,1.589,1.032,3.021,2.536,4.453c0.912,0.865,3.055,1.674,4.39,1.668l4.627-2.729l0.009,1.566l21.521-0.136l-0.015-2.772
			c-6.467-0.627-6.948-0.831-6.985-7.558l-0.128-22.448c3.188-2.846,7.392-5.493,11.772-5.52c7.264-0.046,9.64,4.563,9.678,11.395
			l0.091,16.028c0.038,6.573-0.759,7.349-7.003,8.057l0.016,2.772l20.829-0.13l-0.016-2.774
			C162.522,100.771,161.934,100.518,161.896,93.841z M98.271,100.043c-3.365,0.023-7.544-2.417-7.572-7.295
			c-0.021-3.647,2.211-5.563,6.367-7.284c2.292-0.989,7.727-3.283,10.017-4.379l0.086,15
			C105.201,97.792,101.048,100.025,98.271,100.043z"/>
	</g>
</g>
</svg>
